<?xml version="1.0" standalone="no"?>
<!DOCTYPE svg PUBLIC "-//W3C//DTD SVG 20010904//EN"
 "http://www.w3.org/TR/2001/REC-SVG-20010904/DTD/svg10.dtd">
<svg version="1.0" xmlns="http://www.w3.org/2000/svg"
 width="512.000000pt" height="512.000000pt" viewBox="0 0 512.000000 512.000000"
 preserveAspectRatio="xMidYMid meet">

<g transform="translate(0.000000,512.000000) scale(0.100000,-0.100000)"
fill="#000000" stroke="none">
<path d="M1979 4912 c-231 -61 -388 -297 -352 -530 6 -38 23 -98 39 -133 25
-59 61 -97 413 -452 212 -214 398 -395 413 -403 15 -8 45 -14 68 -14 23 0 53
6 68 14 15 8 201 189 413 403 426 428 424 427 451 581 53 312 -234 596 -550
542 -111 -18 -192 -64 -291 -164 l-84 -85 -90 85 c-165 155 -318 203 -498 156z"/>
<path d="M3944 3626 c-186 -43 -337 -193 -374 -373 -12 -56 -9 -196 5 -239 6
-19 2 -22 -44 -28 -27 -4 -86 -24 -129 -46 -143 -72 -239 -204 -264 -363 -37
-240 121 -480 357 -542 75 -19 175 -19 249 0 33 9 60 14 61 13 2 -2 -9 -64
-23 -139 -28 -148 -26 -173 16 -220 37 -41 78 -49 272 -49 191 0 232 8 273 48
40 41 43 90 14 240 -13 67 -23 122 -21 122 2 0 29 -7 61 -15 199 -52 415 30
527 200 132 198 106 448 -63 615 -90 89 -162 122 -313 145 l-36 6 10 36 c6 21
8 82 6 138 -3 90 -7 107 -39 175 -82 171 -227 271 -412 284 -44 4 -96 0 -133
-8z"/>
<path d="M1011 3619 c-27 -6 -105 -79 -394 -365 -401 -399 -418 -418 -453
-486 -96 -190 -61 -403 91 -555 141 -141 352 -181 530 -99 32 14 59 25 60 24
1 -2 -13 -85 -32 -186 -21 -106 -32 -193 -29 -208 4 -15 20 -39 36 -55 l28
-29 194 0 c294 0 297 4 244 290 -19 102 -33 186 -31 188 1 1 26 -9 56 -22 198
-90 433 -33 571 139 115 143 136 334 56 504 -27 59 -70 105 -412 449 -209 211
-390 388 -401 394 -32 18 -78 25 -114 17z"/>
<path d="M2522 2063 c-7 -3 -46 -55 -87 -116 -192 -290 -403 -500 -692 -693
-80 -53 -115 -82 -119 -99 -13 -54 2 -71 134 -159 278 -184 492 -400 678 -682
76 -117 95 -132 150 -118 19 5 43 33 89 103 191 295 448 549 738 731 73 46 92
74 81 123 -5 23 -26 42 -102 91 -291 190 -507 402 -697 687 -90 135 -116 155
-173 132z"/>
</g>
</svg>
